<svg width="13" height="13" viewBox="0 0 13 13" fill="none" xmlns="http://www.w3.org/2000/svg">
<g clip-path="url(#clip0_1_20)">
<path fill-rule="evenodd" clip-rule="evenodd" d="M12.3782 2.11115C12.4261 2.06326 12.4641 2.00642 12.49 1.94385C12.5159 1.88129 12.5293 1.81423 12.5293 1.74652C12.5293 1.6788 12.5159 1.61174 12.49 1.54918C12.4641 1.48662 12.4261 1.42977 12.3782 1.38189C12.3304 1.334 12.2735 1.29602 12.211 1.2701C12.1484 1.24419 12.0813 1.23085 12.0136 1.23085C11.9459 1.23085 11.8788 1.24419 11.8163 1.2701C11.7537 1.29602 11.6969 1.334 11.649 1.38189L6.86346 6.16844L2.07793 1.38189C2.03005 1.334 1.9732 1.29602 1.91064 1.2701C1.84807 1.24419 1.78102 1.23085 1.7133 1.23085C1.64558 1.23085 1.57852 1.24419 1.51596 1.2701C1.4534 1.29602 1.39655 1.334 1.34867 1.38189C1.30078 1.42977 1.2628 1.48662 1.23688 1.54918C1.21097 1.61174 1.19763 1.6788 1.19763 1.74652C1.19763 1.81423 1.21097 1.88129 1.23688 1.94385C1.2628 2.00642 1.30078 2.06326 1.34867 2.11115L6.13522 6.89668L1.34867 11.6822C1.25196 11.7789 1.19763 11.9101 1.19763 12.0468C1.19763 12.1836 1.25196 12.3148 1.34867 12.4115C1.44537 12.5082 1.57654 12.5625 1.7133 12.5625C1.85006 12.5625 1.98122 12.5082 2.07793 12.4115L6.86346 7.62491L11.649 12.4115C11.7457 12.5082 11.8769 12.5625 12.0136 12.5625C12.1504 12.5625 12.2815 12.5082 12.3782 12.4115C12.475 12.3148 12.5293 12.1836 12.5293 12.0468C12.5293 11.9101 12.475 11.7789 12.3782 11.6822L7.59169 6.89668L12.3782 2.11115Z" fill="#909294"/>
</g>
<defs>
<clipPath id="clip0_1_20">
<rect width="12" height="12" fill="white" transform="translate(0.529297 0.5625)"/>
</clipPath>
</defs>
</svg>
